<?xml version="1.0" encoding="UTF-8"?>
<svg width="1024" height="1024" viewBox="0 0 1024 1024" fill="none" xmlns="http://www.w3.org/2000/svg">
  <defs>
    <linearGradient id="g1" x1="0" x2="1" y1="0" y2="1">
      <stop offset="0" stop-color="#4F46E5"/>
      <stop offset="1" stop-color="#7C3AED"/>
    </linearGradient>
    <filter id="f1" x="-30%" y="-30%" width="160%" height="160%">
      <feGaussianBlur stdDeviation="10" result="blur"/>
      <feMerge>
        <feMergeNode in="blur"/>
        <feMergeNode in="SourceGraphic"/>
      </feMerge>
    </filter>
    <clipPath id="docClip">
      <rect x="288" y="230" width="448" height="560" rx="28"/>
    </clipPath>
  </defs>
  
  <rect x="0" y="0" width="1024" height="1024" rx="180" fill="url(#g1)"/>
  
  <path d="M1024 0H0v380c0 209 169 378 378 378h248c209 0 378-169 378-378V0z" fill="white" opacity="0.03"/>
  
  <g transform="translate(0,0)">
    <rect x="288" y="230" width="448" height="560" rx="28" fill="white" filter="url(#f1)"/>
    <path d="M704 230v110c0 15.463-12.537 28-28 28H576V230h128z" fill="#F3F4F6"/>
    <path d="M704 230L576 358V230h128z" fill="#FFFFFF" opacity="0.6"/>
  </g>
  
  <g stroke="white" stroke-width="36" stroke-linecap="round" stroke-linejoin="round" fill="none">
    <path d="M200 540C200 380 340 256 512 256" opacity="0.95"/>
    <path d="M824 540C824 380 684 256 512 256" opacity="0.95"/>
  </g>
  
  <g fill="white">
    <rect x="170" y="480" width="56" height="120" rx="20" transform="rotate(-12 170 480)"/>
    <rect x="798" y="480" width="56" height="120" rx="20" transform="rotate(12 798 480)"/>
  </g>
  
  <g clip-path="url(#docClip)">
    <path d="M336 460
             C360 420 384 420 408 460
             C432 500 456 500 480 460
             C504 420 528 420 552 460
             C576 500 600 500 624 460
             C648 420 672 420 696 460"
          fill="none" stroke="#FFB020" stroke-width="18" stroke-linecap="round" stroke-linejoin="round" opacity="0.98"/>
    <circle cx="360" cy="452" r="6" fill="#FFB020"/>
    <circle cx="432" cy="452" r="6" fill="#FFB020"/>
    <circle cx="504" cy="452" r="6" fill="#FFB020"/>
    <circle cx="576" cy="452" r="6" fill="#FFB020"/>
    <circle cx="648" cy="452" r="6" fill="#FFB020"/>
  </g>
  
  <ellipse cx="512" cy="820" rx="168" ry="24" fill="#000000" opacity="0.08"/>
  
  <rect x="288" y="230" width="448" height="560" rx="28" stroke="#FFFFFF" stroke-opacity="0.06" fill="none"/>
</svg>
